<svg width="30" height="31" viewBox="0 0 30 31" fill="none" xmlns="http://www.w3.org/2000/svg">
<path d="M22.9546 5.75564L22.9546 26.21C22.954 26.8125 22.7143 27.3903 22.2882 27.8163C21.8622 28.2424 21.2844 28.4821 20.6819 28.4827L16.1365 28.4827C15.5339 28.4821 14.9562 28.2424 14.5301 27.8163C14.104 27.3903 13.8644 26.8125 13.8638 26.21L13.8638 5.75564C13.8644 5.15306 14.104 4.57534 14.5301 4.14926C14.9562 3.72317 15.5339 3.48353 16.1365 3.48293L20.6819 3.48293C21.2844 3.48353 21.8622 3.72317 22.2882 4.14926C22.7143 4.57534 22.954 5.15306 22.9546 5.75564ZM16.1365 26.21L20.6819 26.21L20.6819 5.75564L16.1365 5.75564L16.1365 26.21ZM16.1365 5.75564L16.1365 26.21C16.1359 26.8125 15.8962 27.3902 15.4701 27.8163C15.0441 28.2424 14.4663 28.482 13.8638 28.4826L9.31835 28.4826C8.71578 28.482 8.13806 28.2424 7.71197 27.8163C7.28589 27.3902 7.04625 26.8125 7.04565 26.2099L7.04565 5.75561C7.04625 5.15304 7.28589 4.57532 7.71197 4.14923C8.13806 3.72315 8.71578 3.48351 9.31835 3.48291L13.8638 3.48291C14.4663 3.48351 15.0441 3.72315 15.4701 4.14923C15.8962 4.57532 16.1359 5.15306 16.1365 5.75564ZM9.31835 26.2099L13.8638 26.21L13.8638 5.75564L9.31835 5.75561L9.31835 26.2099ZM9.31835 5.75561L9.31835 26.2099C9.31775 26.8125 9.07811 27.3902 8.65203 27.8163C8.22594 28.2424 7.64822 28.482 7.04565 28.4826L2.50024 28.4826C1.89767 28.482 1.31995 28.2424 0.893863 27.8163C0.467779 27.3902 0.228141 26.8125 0.227539 26.2099L0.227538 5.75561C0.22814 5.15304 0.467778 4.57532 0.893862 4.14923C1.31995 3.72315 1.89767 3.48351 2.50024 3.48291L7.04565 3.48291C7.64822 3.48351 8.22594 3.72315 8.65203 4.14923C9.07811 4.57532 9.31775 5.15304 9.31835 5.75561ZM2.50024 26.2099L7.04565 26.2099L7.04565 5.75561L2.50024 5.75561L2.50024 26.2099Z" fill="#CDCDCD"/>
<path d="M29.7727 5.75589L29.7727 26.2102C29.7721 26.8128 29.5324 27.3905 29.1064 27.8166C28.6803 28.2427 28.1026 28.4823 27.5 28.4829L22.9546 28.4829C22.352 28.4823 21.7743 28.2427 21.3482 27.8166C20.9221 27.3905 20.6825 26.8125 20.6819 26.21L20.6819 5.75564C20.6825 5.15306 20.9221 4.57559 21.3482 4.14951C21.7743 3.72342 22.352 3.48379 22.9546 3.48318L27.5 3.48318C28.1026 3.48379 28.6803 3.72342 29.1064 4.14951C29.5324 4.57559 29.7721 5.15331 29.7727 5.75589ZM22.9546 26.21L27.5 26.2102L27.5 5.75589L22.9546 5.75564L22.9546 26.21Z" fill="#CDCDCD"/>
</svg>
