<svg width="22" height="23" viewBox="0 0 22 23" fill="none" xmlns="http://www.w3.org/2000/svg">
<mask id="mask0_346933_722" style="mask-type:alpha" maskUnits="userSpaceOnUse" x="0" y="0" width="26" height="27">
<rect y="0.53418" width="26" height="26" fill="#D9D9D9"/>
</mask>
<g mask="url(#mask0_346933_722)">
<path d="M10.8669 18.3274C10.6213 18.3274 10.4155 18.2443 10.2494 18.0782C10.0833 17.9121 10.0002 17.7062 10.0002 17.4607C10.0002 17.2151 10.0833 17.0093 10.2494 16.8432C10.4155 16.6771 10.6213 16.594 10.8669 16.594H16.0669V4.46069H10.8669C10.6213 4.46069 10.4155 4.37763 10.2494 4.21152C10.0833 4.04541 10.0002 3.83958 10.0002 3.59402C10.0002 3.34847 10.0833 3.14263 10.2494 2.97652C10.4155 2.81041 10.6213 2.72736 10.8669 2.72736H16.0669C16.5435 2.72736 16.9516 2.89708 17.291 3.23652C17.6305 3.57597 17.8002 3.98402 17.8002 4.46069V16.594C17.8002 17.0707 17.6305 17.4787 17.291 17.8182C16.9516 18.1576 16.5435 18.3274 16.0669 18.3274H10.8669ZM9.28519 11.394H3.06686C2.82131 11.394 2.61547 11.311 2.44936 11.1449C2.28325 10.9787 2.2002 10.7729 2.2002 10.5274C2.2002 10.2818 2.28325 10.076 2.44936 9.90986C2.61547 9.74374 2.82131 9.66069 3.06686 9.66069H9.28519L7.6602 8.03569C7.50131 7.8768 7.42186 7.6818 7.42186 7.45069C7.42186 7.21958 7.50131 7.01736 7.6602 6.84402C7.81908 6.67069 8.02131 6.58041 8.26686 6.57319C8.51242 6.56597 8.72186 6.64902 8.8952 6.82236L11.9935 9.92069C12.1669 10.094 12.2535 10.2962 12.2535 10.5274C12.2535 10.7585 12.1669 10.9607 11.9935 11.134L8.8952 14.2324C8.72186 14.4057 8.51603 14.4887 8.2777 14.4815C8.03936 14.4743 7.83353 14.384 7.6602 14.2107C7.50131 14.0374 7.42547 13.8315 7.43269 13.5932C7.43992 13.3549 7.52297 13.1562 7.68186 12.9974L9.28519 11.394Z" fill="#CDCDCD"/>
</g>
</svg>
